<svg xmlns="http://www.w3.org/2000/svg" viewBox="0 0 48 48"><circle cx="24" cy="24" r="22" fill="#24292f"/><path fill="#fff" d="M24 7.5A16.7 16.7 0 0 0 18.7 40c.8.1 1.1-.4 1.1-.8v-3c-4.6 1-5.5-2-5.5-2-.7-1.7-1.7-2.2-1.7-2.2-1.4-1 .1-1 .1-1 1.5.1 2.4 1.6 2.4 1.6 1.4 2.4 3.6 1.7 4.5 1.3.1-1 .5-1.7 1-2.1-3.7-.4-7.5-1.8-7.5-8.1 0-1.8.6-3.2 1.6-4.4-.2-.4-.7-2.2.2-4.4 0 0 1.3-.4 4.5 1.7a15.4 15.4 0 0 1 8.2 0c3.1-2.1 4.5-1.7 4.5-1.7.9 2.2.3 4 .2 4.4 1 1.2 1.6 2.6 1.6 4.4 0 6.3-3.8 7.7-7.5 8.1.6.5 1.1 1.5 1.1 3v4.4c0 .4.3.9 1.1.8A16.7 16.7 0 0 0 24 7.5z"/></svg>