<svg xmlns="http://www.w3.org/2000/svg" viewBox="0 0 48 48"><defs><linearGradient id="g" x1="8" y1="40" x2="40" y2="8"><stop stop-color="#feda75"/><stop offset=".35" stop-color="#fa7e1e"/><stop offset=".7" stop-color="#d62976"/><stop offset="1" stop-color="#4f5bd5"/></linearGradient></defs><circle cx="24" cy="24" r="22" fill="url(#g)"/><path fill="#fff" d="M17 13h14a4 4 0 0 1 4 4v14a4 4 0 0 1-4 4H17a4 4 0 0 1-4-4V17a4 4 0 0 1 4-4zm0 3a1 1 0 0 0-1 1v14a1 1 0 0 0 1 1h14a1 1 0 0 0 1-1V17a1 1 0 0 0-1-1H17zm7 4a4 4 0 1 1 0 8 4 4 0 0 1 0-8zm0 3a1 1 0 1 0 0 2 1 1 0 0 0 0-2zm6.2-4.8a1.4 1.4 0 1 1 0 2.8 1.4 1.4 0 0 1 0-2.8z"/></svg>